<?xml version="1.0" encoding="UTF-8"?>
<svg version="1.1" xmlns="http://www.w3.org/2000/svg" width="500" height="500">
<path d="M0 0 C165 0 330 0 500 0 C500 165 500 330 500 500 C335 500 170 500 0 500 C0 335 0 170 0 0 Z " fill="#FEFEFE" transform="translate(0,0)"/>
<path d="M0 0 C2.62697064 -0.22137393 5.00893964 -0.28162025 7.625 -0.1875 C8.33140625 -0.17396484 9.0378125 -0.16042969 9.765625 -0.14648438 C11.51074128 -0.1111104 13.25546608 -0.05730221 15 0 C12.90868131 1.08731034 11.11946484 1.97269375 8.8125 2.5 C8.214375 2.665 7.61625 2.83 7 3 C5.71184046 5.57631909 5.86594139 7.43533522 5.85473633 10.32006836 C5.84835648 11.43139633 5.84197662 12.5427243 5.83540344 13.68772888 C5.83429062 14.89292679 5.8331778 16.09812469 5.83203125 17.33984375 C5.82870285 18.57287735 5.82537445 19.80591095 5.82194519 21.0763092 C5.81687472 23.68815741 5.8145369 26.30001211 5.81469727 28.91186523 C5.8147787 31.59389971 5.80781277 34.27576407 5.79418945 36.95776367 C5.77592756 40.81434389 5.77096334 44.6707247 5.76953125 48.52734375 C5.76234573 49.73051743 5.75516022 50.9336911 5.74775696 52.17332458 C5.75083359 53.28780472 5.75391022 54.40228485 5.75708008 55.55053711 C5.75565506 56.53267685 5.75423004 57.51481659 5.75276184 58.52671814 C5.82997815 61.2532532 5.82997815 61.2532532 8 64 C11.35170055 64.66265254 14.77818648 64.46285663 18.1875 64.4375 C19.12142578 64.45748047 20.05535156 64.47746094 21.01757812 64.49804688 C27.19795854 64.49369756 31.04023505 63.78165805 36 60 C37.62995624 57.72875651 37.62995624 57.72875651 38.4375 55.25 C38.74558594 54.45078125 39.05367188 53.6515625 39.37109375 52.828125 C39.57863281 52.22484375 39.78617187 51.6215625 40 51 C40.33 51 40.66 51 41 51 C41.02685095 53.47923801 41.04676547 55.9581884 41.0625 58.4375 C41.07087891 59.14455078 41.07925781 59.85160156 41.08789062 60.58007812 C41.09653588 62.38693559 41.05220011 64.19387603 41 66 C40 67 40 67 37.94358826 67.12025452 C37.03979935 67.11803391 36.13601044 67.11581329 35.20483398 67.11352539 C34.18385117 67.11344986 33.16286835 67.11337433 32.11094666 67.11329651 C31.0005452 67.10813522 29.89014374 67.10297394 28.74609375 67.09765625 C27.61551041 67.0962413 26.48492706 67.09482635 25.32008362 67.09336853 C21.69252935 67.08775019 18.06503576 67.07519458 14.4375 67.0625 C11.98502693 67.05748736 9.5325529 67.05292405 7.08007812 67.04882812 C1.05336455 67.0377748 -4.97331339 67.02101884 -11 67 C-11 66.67 -11 66.34 -11 66 C-8.36 65.67 -5.72 65.34 -3 65 C-2.99191315 64.22992111 -2.98382629 63.45984222 -2.97549438 62.66642761 C-2.89758096 55.41215257 -2.8103004 48.15807961 -2.71247292 40.90404797 C-2.66250882 37.17459527 -2.61617897 33.44517092 -2.578125 29.71557617 C-2.54127335 26.11687631 -2.49491407 22.51841349 -2.44193649 18.91991615 C-2.42339183 17.54643216 -2.4082841 16.17289735 -2.39665604 14.79933739 C-2.37979563 12.87678472 -2.34962546 10.95436266 -2.31884766 9.03198242 C-2.29886215 7.38984016 -2.29886215 7.38984016 -2.2784729 5.71452332 C-2 3 -2 3 0 0 Z " fill="#464544" transform="translate(288,229)"/>
<path d="M0 0 C5.08808704 -1.01339493 10.02571744 -1.72291599 15 0 C19.8581444 3.67549349 23.19308561 9.00122007 26.59667969 13.97900391 C28.42359371 16.61003979 30.43731438 19.05102962 32.5 21.5 C33.1909375 22.34691406 33.881875 23.19382813 34.59375 24.06640625 C36.52125823 26.41633917 38.4608242 28.75479833 40.40625 31.08984375 C41.60430067 32.53895172 42.80221761 33.98817027 44 35.4375 C44.57685547 36.12457031 45.15371094 36.81164062 45.74804688 37.51953125 C46.55338867 38.49792969 46.55338867 38.49792969 47.375 39.49609375 C47.85710937 40.07544678 48.33921875 40.6547998 48.8359375 41.25170898 C50.12927782 43.19416075 50.69907558 44.68843473 51 47 C49.5625 48.75 49.5625 48.75 48 50 C42.60141934 46.62588709 39.10018214 42.90953954 35.234375 37.875 C32.74333143 34.66974114 30.13768028 31.58446086 27.5 28.5 C15.97211155 14.95816733 15.97211155 14.95816733 12 9 C11.89864538 16.33223678 11.82855351 23.66429317 11.78027344 30.99707031 C11.76014836 33.49193065 11.73284548 35.98674378 11.69824219 38.48144531 C11.64976543 42.06587368 11.6270398 45.64967885 11.609375 49.234375 C11.58872986 50.35116638 11.56808472 51.46795776 11.54681396 52.61859131 C11.54651184 53.65936829 11.54620972 54.70014526 11.54589844 55.77246094 C11.53701599 56.68735291 11.52813354 57.60224487 11.51898193 58.54486084 C12.15886526 61.81085584 13.44180497 62.92928102 16 65 C17.32 65.66 18.64 66.32 20 67 C13.4 67 6.8 67 0 67 C1.485 66.01 1.485 66.01 3 65 C6.39120804 62.73735482 6.39120804 62.73735482 8 59 C8.10270051 57.24689434 8.14846612 55.49019646 8.16113281 53.73413086 C8.17074036 52.65969223 8.1803479 51.5852536 8.19024658 50.47825623 C8.1966214 48.73911705 8.1966214 48.73911705 8.203125 46.96484375 C8.20882507 45.77524551 8.21452515 44.58564728 8.22039795 43.36000061 C8.22984752 40.84409475 8.23638176 38.32817652 8.24023438 35.81225586 C8.24996978 31.94949051 8.2810064 28.08725048 8.3125 24.22460938 C8.31902696 21.78385734 8.32427863 19.34310148 8.328125 16.90234375 C8.3404718 15.7408934 8.3528186 14.57944305 8.36553955 13.38279724 C8.36253845 12.31151077 8.35953735 11.2402243 8.35644531 10.13647461 C8.36009094 9.19066025 8.36373657 8.24484589 8.36749268 7.27037048 C8.24622009 6.52114822 8.12494751 5.77192596 8 5 C5.08235 3.0549 3.37462715 2.54723683 0 2 C0 1.34 0 0.68 0 0 Z " fill="#444241" transform="translate(156,133)"/>
<path d="M0 0 C0.33 0 0.66 0 1 0 C1.09796875 0.75023437 1.1959375 1.50046875 1.296875 2.2734375 C2.8935671 13.20251963 5.46025327 22.49436322 14 30 C21.44294855 35.05416439 28.0208508 36.84395701 37 36 C39.05285148 35.34066182 39.05285148 35.34066182 40.875 34.4375 C44 33 44 33 46.4375 33.3125 C46.953125 33.539375 47.46875 33.76625 48 34 C46 37 46 37 44.16015625 37.67041016 C30.73007438 39.71952979 17.37395897 39.14323908 6.19921875 30.9453125 C1.02256606 26.61520359 -2.78756689 22.41743021 -5 16 C-5.37125 15.05125 -5.7425 14.1025 -6.125 13.125 C-5.92032827 8.00820676 -2.97234144 4.06487776 0 0 Z " fill="#454342" transform="translate(206,216)"/>
<path d="M0 0 C3.375 2.125 3.375 2.125 6 5 C6.63795207 8.90745641 6.23129757 11.711772 4 15 C0.82295972 17.11802685 -1.19154985 17.54667607 -4.98828125 17.44140625 C-7 17 -7 17 -10.0625 14.4375 C-12 11 -12 11 -12.125 7.375 C-10.11243824 1.33731472 -6.32228945 -1.16123684 0 0 Z " fill="#F9F9F9" transform="translate(144,348)"/>
<path d="M0 0 C3.375 2.125 3.375 2.125 6 5 C6.63795207 8.90745641 6.23129757 11.711772 4 15 C0.82295972 17.11802685 -1.19154985 17.54667607 -4.98828125 17.44140625 C-7 17 -7 17 -10.0625 14.4375 C-12 11 -12 11 -12.125 7.375 C-10.11243824 1.33731472 -6.32228945 -1.16123684 0 0 Z " fill="#F9F9F9" transform="translate(134,315)"/>
<path d="M0 0 C0.66 0 1.32 0 2 0 C0.4052082 4.81219153 -2.30696124 8.50352751 -5.25 12.5625 C-6.33906455 14.08426135 -7.42758382 15.60641304 -8.515625 17.12890625 C-9.08603516 17.92441895 -9.65644531 18.71993164 -10.24414062 19.53955078 C-13.1930684 23.67182193 -16.09459971 27.83706842 -19 32 C-23.80181962 38.86864985 -28.62286845 45.72325511 -33.4609375 52.56640625 C-36.72393491 57.18466978 -39.9731487 61.8123645 -43.21386719 66.44628906 C-44.39594072 68.13635045 -45.57887088 69.82581303 -46.76269531 71.51464844 C-49.68396335 75.68254117 -52.59439277 79.85721715 -55.484375 84.046875 C-56.57287095 85.61461507 -57.66141061 87.18232481 -58.75 88.75 C-59.25144531 89.48347656 -59.75289062 90.21695313 -60.26953125 90.97265625 C-61.46285292 92.68452439 -62.72479519 94.34822464 -64 96 C-64.66 96 -65.32 96 -66 96 C-64.36878983 90.86320774 -61.23539287 86.95843897 -58.0625 82.6875 C-56.87352981 81.06487834 -55.68605441 79.44116042 -54.5 77.81640625 C-53.90703125 77.00445801 -53.3140625 76.19250977 -52.703125 75.35595703 C-50.26565871 71.98417526 -47.90614129 68.56239903 -45.5625 65.125 C-36.69897143 52.14579622 -27.65278917 39.29156253 -18.5612793 26.47119141 C-15.74823981 22.49934339 -12.96746334 18.50741456 -10.2109375 14.49609375 C-9.25380859 13.10970703 -9.25380859 13.10970703 -8.27734375 11.6953125 C-7.02701142 9.88271574 -5.78204678 8.06640241 -4.54296875 6.24609375 C-3.97964844 5.43140625 -3.41632813 4.61671875 -2.8359375 3.77734375 C-2.08642822 2.68280884 -2.08642822 2.68280884 -1.32177734 1.56616211 C-0.88559082 1.04932861 -0.4494043 0.53249512 0 0 Z " fill="#545251" transform="translate(238,149)"/>
<path d="M0 0 C0.66 0 1.32 0 2 0 C0.18997431 4.03696741 -2.36003755 7.56979961 -4.875 11.1875 C-5.3604126 11.8894751 -5.8458252 12.5914502 -6.34594727 13.31469727 C-11.34815998 20.53335384 -16.41568844 27.70590186 -21.49267578 34.87207031 C-23.95637882 38.35014541 -26.41621278 41.8309485 -28.875 45.3125 C-29.60964478 46.35265259 -29.60964478 46.35265259 -30.35913086 47.41381836 C-33.65601457 52.08560452 -36.94019437 56.76614124 -40.2175293 61.45166016 C-41.98625219 63.9803452 -43.75678658 66.50775534 -45.52734375 69.03515625 C-47.81941365 72.30816795 -50.10219278 75.58738519 -52.37890625 78.87109375 C-53.43999564 80.39330482 -54.50118864 81.91544368 -55.5625 83.4375 C-56.03880859 84.12908203 -56.51511719 84.82066406 -57.00585938 85.53320312 C-59.72246401 89.41682711 -62.54217026 92.75476739 -66 96 C-65.37934817 92.74805725 -64.2484659 90.62282994 -62.33203125 87.9375 C-61.49768555 86.75800781 -61.49768555 86.75800781 -60.64648438 85.5546875 C-59.73866211 84.29011719 -59.73866211 84.29011719 -58.8125 83 C-57.52718462 81.18761284 -56.24203285 79.37510965 -54.95703125 77.5625 C-54.29783691 76.63695312 -53.63864258 75.71140625 -52.95947266 74.7578125 C-49.94954608 70.52156398 -46.97551849 66.26044944 -44 62 C-42.83612339 60.33710946 -41.67206016 58.67434953 -40.5078125 57.01171875 C-38.14751876 53.63996469 -35.7882509 50.2674959 -33.4296875 46.89453125 C-24.10547952 33.56219112 -14.75304237 20.25030439 -5.3125 7 C-4.89000977 6.40590332 -4.46751953 5.81180664 -4.03222656 5.19970703 C-1.11778627 1.11778627 -1.11778627 1.11778627 0 0 Z " fill="#555352" transform="translate(301,194)"/>
<path d="M0 0 C9.625 -0.25 9.625 -0.25 13 2 C13.39507893 6.34586828 13.45331002 8.32003497 11 12 C11.99 13.65 12.98 15.3 14 17 C12.0625 16.1875 12.0625 16.1875 10 15 C9.67 14.01 9.34 13.02 9 12 C6.69 12 4.38 12 2 12 C2 13.65 2 15.3 2 17 C1.34 17 0.68 17 0 17 C0 11.39 0 5.78 0 0 Z " fill="#636161" transform="translate(205,315)"/>
<path d="M0 0 C8.17817372 -0.36080178 8.17817372 -0.36080178 11.5625 1.125 C13.64604507 3.84266749 13.4092743 5.65759324 13 9 C12.62875 9.70125 12.2575 10.4025 11.875 11.125 C11.441875 12.053125 11.441875 12.053125 11 13 C11.78309467 15.23470405 11.78309467 15.23470405 13 17 C10 16 10 16 8 13 C4.93443402 12.26656572 4.93443402 12.26656572 2 12 C2 13.65 2 15.3 2 17 C1.34 17 0.68 17 0 17 C0 11.39 0 5.78 0 0 Z " fill="#5B5A59" transform="translate(273,348)"/>
<path d="M0 0 C8.17817372 -0.36080178 8.17817372 -0.36080178 11.5625 1.125 C13 3 13 3 13.5 6 C13 9 13 9 11.4375 10.875 C8.19726212 12.3704944 5.52393641 12.20330402 2 12 C2 13.65 2 15.3 2 17 C1.34 17 0.68 17 0 17 C0 11.39 0 5.78 0 0 Z " fill="#5B5959" transform="translate(181,315)"/>
<path d="M0 0 C6.27 0 12.54 0 19 0 C18.01 0.66 17.02 1.32 16 2 C13.03304302 4.33339507 12.09677531 5.43129357 11.45410156 9.20800781 C11.4331543 10.44389648 11.41220703 11.67978516 11.390625 12.953125 C11.37408875 13.61334656 11.35755249 14.27356812 11.34051514 14.95379639 C11.29211549 17.05262626 11.27068481 19.15073222 11.25 21.25 C11.22183317 22.6771196 11.19190472 24.10420559 11.16015625 25.53125 C11.08636237 29.02067609 11.03673721 32.50996472 11 36 C10.01 35.34 9.02 34.68 8 34 C7.59936523 31.25024414 7.59936523 31.25024414 7.55859375 27.78515625 C7.53216797 26.54185547 7.50574219 25.29855469 7.47851562 24.01757812 C7.45821289 22.05981445 7.45821289 22.05981445 7.4375 20.0625 C7.40310818 17.49075641 7.36052877 14.91910538 7.30859375 12.34765625 C7.29626709 11.20304932 7.28394043 10.05844238 7.27124023 8.87915039 C7.21099347 5.80275804 7.21099347 5.80275804 5 3 C2.43717258 2.27034634 2.43717258 2.27034634 0 2 C0 1.34 0 0.68 0 0 Z " fill="#575655" transform="translate(208,133)"/>
<path d="M0 0 C10.46247116 -0.48350316 19.15363485 -0.02585373 29 4 C30.94090826 5.94090826 30.39919435 9.47293902 30.5625 12.0625 C30.68818359 13.99802734 30.68818359 13.99802734 30.81640625 15.97265625 C30.87699219 16.97167969 30.93757813 17.97070312 31 19 C30.34 19 29.68 19 29 19 C28.69707031 18.32453125 28.39414062 17.6490625 28.08203125 16.953125 C25.24073934 10.90335884 22.98671742 6.89578171 16.765625 3.9375 C12.49755852 2.49069781 8.23913883 2.544356 3.765625 2.34375 C2.85296875 2.2303125 1.9403125 2.116875 1 2 C0.67 1.34 0.34 0.68 0 0 Z " fill="#4E4C4B" transform="translate(230,185)"/>
<path d="M0 0 C5.40063434 2.70031717 7.41286678 6.17116682 11 11 C11.33 7.37 11.66 3.74 12 0 C12.66 0 13.32 0 14 0 C14 5.61 14 11.22 14 17 C13.34 17 12.68 17 12 17 C10.37643654 15.03062339 8.86440434 13.06654852 7.375 11 C6.95476562 10.42765625 6.53453125 9.8553125 6.1015625 9.265625 C5.06194199 7.84796067 4.03022409 6.42450738 3 5 C2.67 8.96 2.34 12.92 2 17 C1.34 17 0.68 17 0 17 C0 11.39 0 5.78 0 0 Z " fill="#595756" transform="translate(303,315)"/>
<path d="M0 0 C0.66 0 1.32 0 2 0 C3.66403076 2.53222073 5.09126228 5.1642721 6.5625 7.8125 C7.036875 8.534375 7.51125 9.25625 8 10 C8.66 10 9.32 10 10 10 C11.5570828 7.74843501 11.5570828 7.74843501 13.0625 5 C14.01726693 3.31923671 14.99036317 1.64838667 16 0 C16.33 0 16.66 0 17 0 C17 5.61 17 11.22 17 17 C16.67 17 16.34 17 16 17 C15.67 13.37 15.34 9.74 15 6 C12.03 10.455 12.03 10.455 9 15 C6.37886292 12.37886292 4.80357333 10.17772443 3 7 C2.67 10.3 2.34 13.6 2 17 C1.34 17 0.68 17 0 17 C0 11.39 0 5.78 0 0 Z " fill="#5C5A5A" transform="translate(161,348)"/>
<path d="M0 0 C0.66 0 1.32 0 2 0 C3.66403076 2.53222073 5.09126228 5.1642721 6.5625 7.8125 C7.036875 8.534375 7.51125 9.25625 8 10 C8.66 10 9.32 10 10 10 C11.5570828 7.74843501 11.5570828 7.74843501 13.0625 5 C14.01726693 3.31923671 14.99036317 1.64838667 16 0 C16.33 0 16.66 0 17 0 C17 5.61 17 11.22 17 17 C16.67 17 16.34 17 16 17 C15.67 13.37 15.34 9.74 15 6 C12.03 10.455 12.03 10.455 9 15 C6.37886292 12.37886292 4.80357333 10.17772443 3 7 C2.67 10.3 2.34 13.6 2 17 C1.34 17 0.68 17 0 17 C0 11.39 0 5.78 0 0 Z " fill="#5C5A5A" transform="translate(151,315)"/>
<path d="M0 0 C3.375 2.125 3.375 2.125 6 5 C6.63795207 8.90745641 6.23129757 11.711772 4 15 C0.82295972 17.11802685 -1.19154985 17.54667607 -4.98828125 17.44140625 C-7 17 -7 17 -10.0625 14.4375 C-12 11 -12 11 -12.125 7.375 C-10.11243824 1.33731472 -6.32228945 -1.16123684 0 0 Z M-8.4375 3.5625 C-10.34287189 6.02667281 -10.34287189 6.02667281 -9.875 9.625 C-9.29259286 13.04542055 -9.29259286 13.04542055 -7 15 C-1.58044124 15.67339166 -1.58044124 15.67339166 3.0625 13.4375 C4.40411569 9.9492992 3.92678615 7.57474656 3 4 C-1.12448824 1.25034117 -4.16863319 0.82604692 -8.4375 3.5625 Z " fill="#5C5A59" transform="translate(144,348)"/>
<path d="M0 0 C3.375 2.125 3.375 2.125 6 5 C6.63795207 8.90745641 6.23129757 11.711772 4 15 C0.82295972 17.11802685 -1.19154985 17.54667607 -4.98828125 17.44140625 C-7 17 -7 17 -10.0625 14.4375 C-12 11 -12 11 -12.125 7.375 C-10.11243824 1.33731472 -6.32228945 -1.16123684 0 0 Z M-8.4375 3.5625 C-10.34287189 6.02667281 -10.34287189 6.02667281 -9.875 9.625 C-9.29259286 13.04542055 -9.29259286 13.04542055 -7 15 C-1.58044124 15.67339166 -1.58044124 15.67339166 3.0625 13.4375 C4.40411569 9.9492992 3.92678615 7.57474656 3 4 C-1.12448824 1.25034117 -4.16863319 0.82604692 -8.4375 3.5625 Z " fill="#5C5A59" transform="translate(134,315)"/>
<path d="M0 0 C3.96 0 7.92 0 12 0 C12 0.66 12 1.32 12 2 C8.7 2 5.4 2 2 2 C2 3.98 2 5.96 2 8 C4.97 8 7.94 8 11 8 C11 8.33 11 8.66 11 9 C8.03 9 5.06 9 2 9 C2 10.98 2 12.96 2 15 C5.3 15 8.6 15 12 15 C12 15.66 12 16.32 12 17 C8.04 17 4.08 17 0 17 C0 11.39 0 5.78 0 0 Z " fill="#5D5C5B" transform="translate(191,348)"/>
<path d="M0 0 C3.96 0 7.92 0 12 0 C12 0.66 12 1.32 12 2 C8.7 2 5.4 2 2 2 C2 3.98 2 5.96 2 8 C4.97 8 7.94 8 11 8 C11 8.33 11 8.66 11 9 C8.03 9 5.06 9 2 9 C2 10.98 2 12.96 2 15 C5.3 15 8.6 15 12 15 C12 15.66 12 16.32 12 17 C8.04 17 4.08 17 0 17 C0 11.39 0 5.78 0 0 Z " fill="#5D5C5B" transform="translate(390,315)"/>
<path d="M0 0 C3.63 0 7.26 0 11 0 C11 0.66 11 1.32 11 2 C8.03 2 5.06 2 2 2 C2 3.65 2 5.3 2 7 C4.64 7 7.28 7 10 7 C10 7.66 10 8.32 10 9 C7.03 9 4.06 9 1 9 C1 10.98 1 12.96 1 15 C4.63 15 8.26 15 12 15 C12 15.66 12 16.32 12 17 C8.04 17 4.08 17 0 17 C0 11.39 0 5.78 0 0 Z " fill="#686666" transform="translate(250,348)"/>
<path d="M0 0 C3.96 0 7.92 0 12 0 C12 0.66 12 1.32 12 2 C8.7 2 5.4 2 2 2 C2 3.98 2 5.96 2 8 C4.64 8 7.28 8 10 8 C10 8.33 10 8.66 10 9 C7.36 9 4.72 9 2 9 C2 10.98 2 12.96 2 15 C5.3 15 8.6 15 12 15 C12 15.66 12 16.32 12 17 C8.04 17 4.08 17 0 17 C0 11.39 0 5.78 0 0 Z " fill="#575554" transform="translate(280,315)"/>
<path d="M0 0 C3.96 0 7.92 0 12 0 C12 0.66 12 1.32 12 2 C8.7 2 5.4 2 2 2 C2 3.98 2 5.96 2 8 C4.64 8 7.28 8 10 8 C10 8.33 10 8.66 10 9 C7.36 9 4.72 9 2 9 C2 10.98 2 12.96 2 15 C5.3 15 8.6 15 12 15 C12 15.66 12 16.32 12 17 C8.04 17 4.08 17 0 17 C0 11.39 0 5.78 0 0 Z " fill="#575554" transform="translate(230,315)"/>
<path d="M0 0 C0.66 0 1.32 0 2 0 C2 2.64 2 5.28 2 8 C5.3 8 8.6 8 12 8 C12 5.36 12 2.72 12 0 C12.66 0 13.32 0 14 0 C14 5.61 14 11.22 14 17 C13.34 17 12.68 17 12 17 C12 14.36 12 11.72 12 9 C8.7 9 5.4 9 2 9 C2 11.64 2 14.28 2 17 C1.34 17 0.68 17 0 17 C0 11.39 0 5.78 0 0 Z " fill="#4E4C4C" transform="translate(107,348)"/>
<path d="M0 0 C6.0546875 -0.1953125 6.0546875 -0.1953125 8 0 C8.66 0.66 9.32 1.32 10 2 C9.44444444 6.55555556 9.44444444 6.55555556 8 8 C5.32941149 8.14115161 2.67567762 8.04247107 0 8 C0 5.36 0 2.72 0 0 Z " fill="#F4F4F4" transform="translate(207,317)"/>
<path d="M0 0 C0.66 0.33 1.32 0.66 2 1 C2 1.66 2 2.32 2 3 C-0.64 3 -3.28 3 -6 3 C-6.04289755 4.93109581 -6.04289755 4.93109581 -5 7 C-3.2675 7.7425 -3.2675 7.7425 -1.5 8.5 C2 10 2 10 3.125 12 C3 14 3 14 2 15.75 C-1.00115554 17.62572221 -3.54211361 17.25148265 -7 17 C-7.66 16.67 -8.32 16.34 -9 16 C-8.67 15.34 -8.34 14.68 -8 14 C-5.36 14 -2.72 14 0 14 C0 13.01 0 12.02 0 11 C-0.56589844 10.79503906 -1.13179687 10.59007812 -1.71484375 10.37890625 C-2.44832031 10.10949219 -3.18179688 9.84007812 -3.9375 9.5625 C-4.66839844 9.29566406 -5.39929688 9.02882813 -6.15234375 8.75390625 C-8 8 -8 8 -9 7 C-9.25 4.5625 -9.25 4.5625 -9 2 C-5.54337669 -0.30441554 -4.05142119 -0.25860135 0 0 Z " fill="#5E5D5C" transform="translate(236,348)"/>
<path d="M0 0 C3.96 0 7.92 0 12 0 C12 0.66 12 1.32 12 2 C8.7 2 5.4 2 2 2 C2 3.98 2 5.96 2 8 C4.97 8 7.94 8 11 8 C11 8.33 11 8.66 11 9 C8.03 9 5.06 9 2 9 C2 11.31 2 13.62 2 16 C5.3 16 8.6 16 12 16 C12 16.33 12 16.66 12 17 C8.04 17 4.08 17 0 17 C0 11.39 0 5.78 0 0 Z " fill="#5F5D5C" transform="translate(360,348)"/>
<path d="M0 0 C0.66 0.33 1.32 0.66 2 1 C2 1.66 2 2.32 2 3 C-0.64 3 -3.28 3 -6 3 C-6.04289755 4.93109581 -6.04289755 4.93109581 -5 7 C-3.2675 7.7425 -3.2675 7.7425 -1.5 8.5 C2 10 2 10 3.125 12 C3 14 3 14 2 15.75 C-1.00115554 17.62572221 -3.54211361 17.25148265 -7 17 C-7.66 16.67 -8.32 16.34 -9 16 C-8.67 15.34 -8.34 14.68 -8 14 C-5.36 14 -2.72 14 0 14 C0 13.01 0 12.02 0 11 C-0.56589844 10.79503906 -1.13179688 10.59007812 -1.71484375 10.37890625 C-2.44832031 10.10949219 -3.18179687 9.84007812 -3.9375 9.5625 C-4.66839844 9.29566406 -5.39929688 9.02882813 -6.15234375 8.75390625 C-8 8 -8 8 -9 7 C-9.25 4.5625 -9.25 4.5625 -9 2 C-5.54337669 -0.30441554 -4.05142119 -0.25860135 0 0 Z " fill="#5E5D5C" transform="translate(338,315)"/>
<path d="M0 0 C6.75 -0.125 6.75 -0.125 9 1 C9 2.98 9 4.96 9 7 C6.04335481 8.4783226 3.25770263 8.06032783 0 8 C0 5.36 0 2.72 0 0 Z " fill="#FBFBFB" transform="translate(275,350)"/>
<path d="M0 0 C6.75 -0.125 6.75 -0.125 9 1 C9 2.98 9 4.96 9 7 C6.04335481 8.4783226 3.25770263 8.06032783 0 8 C0 5.36 0 2.72 0 0 Z " fill="#FBFBFB" transform="translate(183,317)"/>
<path d="M0 0 C3.1770422 0.55252908 3.80091982 1.1927392 5.875 3.5 C5.24851562 3.47679687 4.62203125 3.45359375 3.9765625 3.4296875 C3.15929687 3.41164063 2.34203125 3.39359375 1.5 3.375 C0.28183594 3.34019531 0.28183594 3.34019531 -0.9609375 3.3046875 C-3.33842243 3.28629949 -3.33842243 3.28629949 -5.125 5.5 C-5.45833333 9 -5.45833333 9 -5.125 12.5 C-3.33842243 14.71370051 -3.33842243 14.71370051 -0.9609375 14.6953125 C-0.14882812 14.67210937 0.66328125 14.64890625 1.5 14.625 C2.31726563 14.60695313 3.13453125 14.58890625 3.9765625 14.5703125 C4.60304688 14.54710937 5.22953125 14.52390625 5.875 14.5 C5.875 15.16 5.875 15.82 5.875 16.5 C2.73628812 18.06935594 0.33644178 17.85201103 -3.125 17.5 C-6.81686542 14.90783917 -7.95383761 13.45850936 -8.75 9 C-7.79106712 3.62997586 -5.47365885 0.87578542 0 0 Z " fill="#656463" transform="translate(106.125,314.5)"/>
<path d="M0 0 C3 1 3 1 4.38671875 3.72265625 C5.59114583 6.81510417 6.79557292 9.90755208 8 13 C11.465 6.565 11.465 6.565 15 0 C16.36420006 4.09260018 14.7664515 6.47012659 13.0625 10.1875 C12.77181641 10.84169922 12.48113281 11.49589844 12.18164062 12.16992188 C11.46304657 13.78381344 10.7326412 15.39243655 10 17 C9.01 17 8.02 17 7 17 C5.82866942 14.54379149 4.66278278 12.08525083 3.5 9.625 C3.16613281 8.92632812 2.83226562 8.22765625 2.48828125 7.5078125 C0 2.2265625 0 2.2265625 0 0 Z " fill="#5D5B5B" transform="translate(295,348)"/>
<path d="M0 0 C1.6796875 1.52734375 1.6796875 1.52734375 3 3 C2.38511719 2.96519531 1.77023437 2.93039062 1.13671875 2.89453125 C-0.07564453 2.85392578 -0.07564453 2.85392578 -1.3125 2.8125 C-2.11300781 2.77769531 -2.91351563 2.74289062 -3.73828125 2.70703125 C-6.05657503 2.82694837 -6.05657503 2.82694837 -7.8046875 4.28515625 C-9.36393892 6.14838125 -9.36393892 6.14838125 -8.8125 9.625 C-8.544375 10.73875 -8.27625 11.8525 -8 13 C-5.59454362 14.20272819 -4.05003047 14.10071472 -1.375 14.0625 C-0.55773437 14.05347656 0.25953125 14.04445313 1.1015625 14.03515625 C1.72804688 14.02355469 2.35453125 14.01195312 3 14 C3 14.66 3 15.32 3 16 C-0.21102274 17.60551137 -3.51699208 17.46807221 -7 17 C-9.5 15.5625 -9.5 15.5625 -11 13 C-11.60303852 9.8699429 -11.65919094 7.12399182 -11 4 C-7.76848844 0.10317723 -4.97259926 -0.75669989 0 0 Z " fill="#595857" transform="translate(346,348)"/>
<path d="M0 0 C0.66 0 1.32 0 2 0 C2.84026396 1.76755526 3.67198722 3.53917263 4.5 5.3125 C4.9640625 6.29863281 5.428125 7.28476562 5.90625 8.30078125 C7 11 7 11 7 14 C7.66 14 8.32 14 9 14 C9.0825 13.360625 9.165 12.72125 9.25 12.0625 C10.29520372 7.79458483 12.14091826 3.96892333 14 0 C14.66 0 15.32 0 16 0 C14.1668733 5.99932374 11.92678249 11.44920563 9 17 C6 16 6 16 4.39453125 13.1640625 C3.87246094 11.99617188 3.35039062 10.82828125 2.8125 9.625 C2.28269531 8.46226562 1.75289063 7.29953125 1.20703125 6.1015625 C0 3 0 3 0 0 Z " fill="#585756" transform="translate(364,315)"/>
<path d="M0 0 C0.66 0 1.32 0 2 0 C2 2.64 2 5.28 2 8 C5.63 8 9.26 8 13 8 C13 5.36 13 2.72 13 0 C13.33 0 13.66 0 14 0 C14 5.61 14 11.22 14 17 C13.67 17 13.34 17 13 17 C13 14.36 13 11.72 13 9 C9.37 9 5.74 9 2 9 C2 11.64 2 14.28 2 17 C1.34 17 0.68 17 0 17 C0 11.39 0 5.78 0 0 Z " fill="#4B4948" transform="translate(253,315)"/>
<path d="M0 0 C0.66 0 1.32 0 2 0 C2 5.61 2 11.22 2 17 C1.34 17 0.68 17 0 17 C-1.2890625 15.46875 -1.2890625 15.46875 -2.625 13.5 C-3.07101562 12.8503125 -3.51703125 12.200625 -3.9765625 11.53125 C-4.31429688 11.0259375 -4.65203125 10.520625 -5 10 C-4.67 9.34 -4.34 8.68 -4 8 C-3.01 8.99 -2.02 9.98 -1 11 C-0.67 7.37 -0.34 3.74 0 0 Z " fill="#636261" transform="translate(315,315)"/>
<path d="M0 0 C3.96 0 7.92 0 12 0 C12 0.66 12 1.32 12 2 C8.7 2 5.4 2 2 2 C2 3.98 2 5.96 2 8 C1.34 8 0.68 8 0 8 C0 5.36 0 2.72 0 0 Z " fill="#626160" transform="translate(280,315)"/>
<path d="M0 0 C3.96 0 7.92 0 12 0 C12 0.66 12 1.32 12 2 C8.7 2 5.4 2 2 2 C2 3.98 2 5.96 2 8 C1.34 8 0.68 8 0 8 C0 5.36 0 2.72 0 0 Z " fill="#626160" transform="translate(230,315)"/>
<path d="M0 0 C0.66 0 1.32 0 2 0 C2 5.61 2 11.22 2 17 C1.34 17 0.68 17 0 17 C-0.89316269 11.06390334 -0.97040422 5.93024803 0 0 Z " fill="#555352" transform="translate(119,348)"/>
<path d="M0 0 C5.28 0 10.56 0 16 0 C16.33 0.99 16.66 1.98 17 3 C14.35319096 2.88660796 11.70822482 2.75987127 9.0625 2.625 C8.30775391 2.5940625 7.55300781 2.563125 6.77539062 2.53125 C4.84492605 2.4273685 2.92057919 2.22104386 1 2 C0.67 1.34 0.34 0.68 0 0 Z " fill="#626160" transform="translate(230,185)"/>
<path d="M0 0 C3.1770422 0.55252908 3.80091982 1.1927392 5.875 3.5 C4.95267578 3.43039062 4.95267578 3.43039062 4.01171875 3.359375 C-0.95569571 2.93912339 -0.95569571 2.93912339 -5.0625 5.25 C-5.413125 5.9925 -5.76375 6.735 -6.125 7.5 C-6.7128125 8.61375 -6.7128125 8.61375 -7.3125 9.75 C-7.580625 10.3275 -7.84875 10.905 -8.125 11.5 C-8.59207789 7.48313013 -8.44650834 5.93498188 -6 2.625 C-3.125 0.5 -3.125 0.5 0 0 Z " fill="#585655" transform="translate(106.125,314.5)"/>
<path d="M0 0 C0.66 0 1.32 0 2 0 C2.86604534 1.76505435 3.71748642 3.53728074 4.5625 5.3125 C5.27599609 6.79169922 5.27599609 6.79169922 6.00390625 8.30078125 C7 11 7 11 6 14 C3.894132 11.894132 3.07247753 10.2634771 1.875 7.5625 C1.52179688 6.78003906 1.16859375 5.99757813 0.8046875 5.19140625 C0 3 0 3 0 0 Z " fill="#636160" transform="translate(364,315)"/>
<path d="M0 0 C0.66 0 1.32 0 2 0 C0.34832443 3.5786304 -1.78286492 6.74820188 -4 10 C-4.99 9.67 -5.98 9.34 -7 9 C-5.88266271 7.49428343 -4.75589965 5.99555708 -3.625 4.5 C-2.99851562 3.6646875 -2.37203125 2.829375 -1.7265625 1.96875 C-1.15679687 1.3190625 -0.58703125 0.669375 0 0 Z " fill="#595756" transform="translate(301,194)"/>
<path d="M0 0 C0.99 0.33 1.98 0.66 3 1 C4.56118428 1.06740865 6.1250252 1.08514456 7.6875 1.0625 C8.49574219 1.05347656 9.30398438 1.04445313 10.13671875 1.03515625 C10.75160156 1.02355469 11.36648438 1.01195312 12 1 C12 1.66 12 2.32 12 3 C8.78548731 4.60725635 5.56387464 4.05748185 2 4 C1.34 2.68 0.68 1.36 0 0 Z " fill="#646261" transform="translate(337,361)"/>
<path d="M0 0 C0.66 0.33 1.32 0.66 2 1 C2 1.66 2 2.32 2 3 C-0.01822917 2.90234375 -2.03645833 2.8046875 -4.0546875 2.70703125 C-4.69664062 2.80371094 -5.33859375 2.90039062 -6 3 C-6.66 3.99 -7.32 4.98 -8 6 C-8.33 4.68 -8.66 3.36 -9 2 C-5.54337669 -0.30441554 -4.05142119 -0.25860135 0 0 Z " fill="#6B6968" transform="translate(236,348)"/>
<path d="M0 0 C0.66 0.33 1.32 0.66 2 1 C2 1.66 2 2.32 2 3 C-0.01822917 2.90234375 -2.03645833 2.8046875 -4.0546875 2.70703125 C-4.69664062 2.80371094 -5.33859375 2.90039062 -6 3 C-6.66 3.99 -7.32 4.98 -8 6 C-8.33 4.68 -8.66 3.36 -9 2 C-5.54337669 -0.30441554 -4.05142119 -0.25860135 0 0 Z " fill="#6B6968" transform="translate(338,315)"/>
<path d="M0 0 C-2 3 -2 3 -5.125 3.6875 C-6.07375 3.790625 -7.0225 3.89375 -8 4 C-8.33 3.01 -8.66 2.02 -9 1 C-5.57367167 -0.61798838 -3.61944899 -1.34053666 0 0 Z " fill="#585656" transform="translate(254,250)"/>
<path d="M0 0 C0.66 0.99 1.32 1.98 2 3 C1.04956626 4.33897583 0.08940853 5.67105427 -0.875 7 C-1.40867188 7.7425 -1.94234375 8.485 -2.4921875 9.25 C-2.98976562 9.8275 -3.48734375 10.405 -4 11 C-4.66 11 -5.32 11 -6 11 C-4.54955729 6.89041233 -2.48889248 3.56741255 0 0 Z " fill="#5C5B5A" transform="translate(178,234)"/>
<path d="M0 0 C0.66 0 1.32 0 2 0 C2.33 1.32 2.66 2.64 3 4 C2.34 4 1.68 4 1 4 C1 8.29 1 12.58 1 17 C0.67 17 0.34 17 0 17 C0 11.39 0 5.78 0 0 Z " fill="#444241" transform="translate(161,348)"/>
<path d="M0 0 C0.66 0 1.32 0 2 0 C2.33 1.32 2.66 2.64 3 4 C2.34 4 1.68 4 1 4 C1 8.29 1 12.58 1 17 C0.67 17 0.34 17 0 17 C0 11.39 0 5.78 0 0 Z " fill="#444241" transform="translate(151,315)"/>
</svg>
